<svg width="138" height="40" viewBox="0 0 138 40" fill="none" xmlns="http://www.w3.org/2000/svg">
<path d="M62.8404 11.8018H50.1382V14.8393H54.8325V28.8393H58.2841V14.8393H62.9784L62.8404 11.8018ZM71.5662 17.0208C70.8507 17.0053 70.1457 17.1946 69.5341 17.5664C68.9226 17.9382 68.4301 18.477 68.1145 19.1194V11.1667H64.8837V28.8393H68.1145V22.93C68.069 22.5708 68.1034 22.206 68.2154 21.8616C68.3273 21.5172 68.5139 21.2018 68.7619 20.938C69.0099 20.6742 69.3132 20.4684 69.65 20.3354C69.9868 20.2024 70.3488 20.1455 70.7102 20.1687C71.8147 20.1687 72.8917 20.9695 72.8917 22.792V28.7841H76.15V22.5158C76.1776 19.0365 74.576 17.0208 71.5662 17.0208ZM85.8423 17.0208C85.0517 17.0338 84.2887 17.3137 83.6772 17.815C83.0657 18.3162 82.6415 19.0095 82.4735 19.7821V17.3521H79.2427V28.8669H82.5011V24.8906C82.5011 21.6046 83.6333 20.0582 85.2624 20.0582C85.8404 20.0577 86.4096 20.2 86.9193 20.4724L87.6648 17.4074C87.0949 17.1408 86.4714 17.0086 85.8423 17.0208ZM91.0336 15.2811C91.2984 15.2885 91.562 15.2436 91.8094 15.149C92.0568 15.0545 92.2831 14.9121 92.4754 14.73C92.6677 14.5479 92.8223 14.3297 92.9303 14.0879C93.0383 13.8461 93.0975 13.5853 93.1046 13.3206C93.0461 12.816 92.8042 12.3506 92.4249 12.0128C92.0456 11.675 91.5554 11.4883 91.0475 11.4883C90.5395 11.4883 90.0493 11.675 89.67 12.0128C89.2907 12.3506 89.0488 12.816 88.9903 13.3206C89.0047 13.8504 89.2273 14.3532 89.6097 14.7201C89.9921 15.087 90.5037 15.2886 91.0336 15.2811ZM89.4321 28.8393H92.6628V17.3245H89.4321V28.8393ZM104.592 11.1667V18.5947C104.145 18.0517 103.578 17.6195 102.936 17.3321C102.294 17.0447 101.594 16.9098 100.892 16.9379C99.3692 17.0412 97.9427 17.7189 96.9008 18.8338C95.8589 19.9488 95.2794 21.4179 95.2794 22.9439C95.2794 24.4698 95.8589 25.9389 96.9008 27.0539C97.9427 28.1688 99.3692 28.8465 100.892 28.9498C101.593 28.9697 102.29 28.831 102.931 28.5442C103.572 28.2573 104.139 27.8296 104.592 27.293V28.7289H107.823V11.0563L104.592 11.1667ZM101.499 26.0504C101.105 26.0504 100.715 25.9723 100.351 25.8207C99.9878 25.6691 99.6578 25.447 99.3805 25.1671C99.1032 24.8873 98.8841 24.5553 98.7359 24.1902C98.5877 23.8252 98.5132 23.4344 98.5169 23.0405C98.5169 22.6502 98.5942 22.2637 98.7444 21.9034C98.8946 21.5431 99.1147 21.2162 99.392 20.9414C99.6693 20.6667 99.9983 20.4496 100.36 20.3028C100.722 20.1559 101.109 20.0822 101.499 20.0859C102.29 20.0859 103.049 20.4001 103.608 20.9593C104.167 21.5186 104.481 22.2772 104.481 23.0681C104.481 23.859 104.167 24.6176 103.608 25.1769C103.049 25.7362 102.29 26.0504 101.499 26.0504ZM119.779 17.3245V18.5947C119.331 18.0533 118.764 17.6223 118.122 17.335C117.481 17.0477 116.782 16.9119 116.079 16.9379C114.557 17.0412 113.13 17.7189 112.088 18.8338C111.046 19.9488 110.467 21.4179 110.467 22.9439C110.467 24.4698 111.046 25.9389 112.088 27.0539C113.13 28.1688 114.557 28.8465 116.079 28.9498C116.78 28.9638 117.475 28.8225 118.115 28.536C118.755 28.2496 119.323 27.8251 119.779 27.293V28.7289H123.01V17.3245H119.779ZM116.687 26.0504C116.288 26.0578 115.892 25.9852 115.522 25.8369C115.152 25.6886 114.815 25.4676 114.532 25.187C114.249 24.9064 114.025 24.5719 113.873 24.2032C113.721 23.8345 113.645 23.4391 113.649 23.0405C113.654 22.4519 113.834 21.878 114.165 21.3912C114.496 20.9045 114.964 20.5265 115.509 20.305C116.054 20.0835 116.653 20.0284 117.23 20.1466C117.807 20.2647 118.335 20.5509 118.75 20.9691C119.164 21.3872 119.445 21.9186 119.558 22.4964C119.671 23.0741 119.61 23.6723 119.384 24.2157C119.157 24.759 118.775 25.2231 118.285 25.5496C117.795 25.8761 117.22 26.0503 116.631 26.0504H116.687ZM133.724 17.3245L130.963 23.9794L128.201 17.3245H124.694L129.223 27.7348L126.462 34.5001H130.217L137.341 17.3245H133.724Z" fill="white"/>
<g clip-path="url(#clip0_193_346)">
<path d="M31.7399 40.06H8.18987C3.64987 40.06 -0.0701294 36.34 -0.0701294 31.8V8.26C-0.0701294 3.71 3.64987 0 8.18987 0H31.7299C36.2799 0 39.9999 3.71 39.9999 8.26V31.8C39.9999 36.35 36.2799 40.06 31.7399 40.06Z" fill="#00D373"/>
<path d="M8.43824 9.65886H31.4083C32.2383 9.65886 32.7682 10.4889 32.4382 11.2289L23.4382 32.5789C23.2682 32.9889 22.8582 33.2789 22.4082 33.2789H17.6982C17.2482 33.2789 16.8282 32.9889 16.6682 32.5789L7.40824 11.2689C7.07824 10.4889 7.61824 9.65886 8.43824 9.65886Z" fill="white"/>
<path opacity="0.5" d="M16.5404 33.2884L5.22039 18.4984C4.72039 17.8784 5.22039 16.9684 6.05039 16.9684H14.6004C14.9704 16.9684 15.3004 17.2184 15.3804 17.5884L18.7704 33.3284" fill="#00BA65"/>
<path opacity="0.5" d="M23.4015 33.3288L34.7515 18.4988C35.2515 17.8788 34.7515 16.9688 33.9215 16.9688H25.3315C24.9615 16.9688 24.6315 17.2188 24.5515 17.5888L21.1615 33.2888" fill="#00BA65"/>
</g>
<defs>
<clipPath id="clip0_193_346">
<rect width="40" height="40" fill="white"/>
</clipPath>
</defs>
</svg>
